<?xml version="1.0" encoding="UTF-8" standalone="no"?>
<svg
   version="1.1"
   width="900"
   height="60"
   viewBox="0 0 900 60"
   xml:space="preserve"
   id="svg43"
   sodipodi:docname="Untitled.svg"
   xmlns:inkscape="http://www.inkscape.org/namespaces/inkscape"
   xmlns:sodipodi="http://sodipodi.sourceforge.net/DTD/sodipodi-0.dtd"
   xmlns="http://www.w3.org/2000/svg"
   xmlns:svg="http://www.w3.org/2000/svg"><sodipodi:namedview
   id="namedview45"
   pagecolor="#ffffff"
   bordercolor="#000000"
   borderopacity="0.25"
   inkscape:showpageshadow="2"
   inkscape:pageopacity="0.0"
   inkscape:pagecheckerboard="0"
   inkscape:deskcolor="#d1d1d1"
   showgrid="false" />
<desc
   id="desc28">Created with Fabric.js 3.5.0</desc>
<defs
   id="defs30" />



<g
   id="g1029"
   transform="translate(-30,-700)"><g
     transform="matrix(0.625,0,0,0.48667504,480,729.99999)"
     id="525433">
<path
   style="opacity:1;fill:#e62f5f;fill-opacity:0.5;fill-rule:nonzero;stroke:none;stroke-width:1;stroke-linecap:butt;stroke-linejoin:miter;stroke-miterlimit:4;stroke-dasharray:none;stroke-dashoffset:0"
   vector-effect="non-scaling-stroke"
   transform="translate(-720,-258.3572)"
   d="m 0,256 h 60 c 60,0 180,0 300,-16 120,-16 240,-48 360,-42.7 120,5.7 240,47.7 360,64 120,15.7 240,5.7 300,0 l 60,-5.3 v 64 h -60 c -60,0 -180,0 -300,0 -120,0 -240,0 -360,0 -120,0 -240,0 -360,0 -120,0 -240,0 -300,0 H 0 Z"
   stroke-linecap="round"
   id="path34" />
</g><g
     transform="matrix(0.625,0,0,0.28812752,480,729.99999)"
     id="587681">
<path
   style="opacity:1;fill:#e62f5f;fill-opacity:0.65;fill-rule:nonzero;stroke:none;stroke-width:1;stroke-linecap:butt;stroke-linejoin:miter;stroke-miterlimit:4;stroke-dasharray:none;stroke-dashoffset:0"
   vector-effect="non-scaling-stroke"
   transform="translate(-720,-215.8794)"
   d="m 0,128 60,26.7 C 120,181 240,235 360,261.3 480,288 600,288 720,245.3 840,203 960,117 1080,112 c 120,-5 240,69 300,106.7 l 60,37.3 v 64 h -60 c -60,0 -180,0 -300,0 -120,0 -240,0 -360,0 -120,0 -240,0 -360,0 -120,0 -240,0 -300,0 H 0 Z"
   stroke-linecap="round"
   id="path37" />
</g><g
     transform="matrix(0.625,0,0,0.31858472,480,729.99999)"
     id="648075">
<path
   style="opacity:1;fill:#e62f5f;fill-opacity:0.8;fill-rule:nonzero;stroke:none;stroke-width:1;stroke-linecap:butt;stroke-linejoin:miter;stroke-miterlimit:4;stroke-dasharray:none;stroke-dashoffset:0"
   vector-effect="non-scaling-stroke"
   transform="translate(-720,-225.8335)"
   d="m 0,192 24,5.3 c 24,5.7 72,15.7 120,26.7 48,11 96,21 144,10.7 C 336,224 384,192 432,165.3 480,139 528,117 576,144 c 48,27 96,101 144,128 48,27 96,5 144,-10.7 48,-16.3 96,-26.3 144,-21.3 48,5 96,27 144,0 48,-27 96,-101 144,-101.3 48,0.3 96,74.3 120,112 l 24,37.3 v 32 h -24 c -24,0 -72,0 -120,0 -48,0 -96,0 -144,0 -48,0 -96,0 -144,0 -48,0 -96,0 -144,0 -48,0 -96,0 -144,0 -48,0 -96,0 -144,0 -48,0 -96,0 -144,0 -48,0 -96,0 -144,0 -48,0 -96,0 -144,0 -48,0 -96,0 -120,0 H 0 Z"
   stroke-linecap="round"
   id="path40" />
</g></g>
</svg>
